<svg width="18" height="18" viewBox="0 0 18 18" fill="none" xmlns="http://www.w3.org/2000/svg">
<rect width="18" height="18" rx="9" fill="#DEF7EC"/>
<path fill-rule="evenodd" clip-rule="evenodd" d="M13.6947 5.70495C13.8259 5.83622 13.8996 6.01424 13.8996 6.19985C13.8996 6.38547 13.8259 6.56348 13.6947 6.69475L8.0947 12.2948C7.96343 12.426 7.78541 12.4997 7.5998 12.4997C7.41418 12.4997 7.23617 12.426 7.1049 12.2948L4.3049 9.49475C4.17739 9.36273 4.10683 9.18591 4.10842 9.00237C4.11002 8.81883 4.18364 8.64326 4.31342 8.51348C4.44321 8.38369 4.61878 8.31007 4.80232 8.30848C4.98585 8.30688 5.16268 8.37744 5.2947 8.50495L7.5998 10.8101L12.7049 5.70495C12.8362 5.57372 13.0142 5.5 13.1998 5.5C13.3854 5.5 13.5634 5.57372 13.6947 5.70495Z" fill="#0E9F6E"/>
</svg>
