<svg width="86" height="18" viewBox="0 0 86 18" fill="none" xmlns="http://www.w3.org/2000/svg">
<path d="M8.8633 13.6323L12.2397 15.7712C12.6713 16.0443 13.2068 15.6378 13.0788 15.1339L12.1037 11.297C12.0761 11.1901 12.0793 11.0776 12.1128 10.9725C12.1464 10.8673 12.2089 10.7737 12.2932 10.7025L15.321 8.18297C15.7184 7.85202 15.5138 7.19174 15.0024 7.15854L11.0487 6.90149C10.9423 6.89394 10.8402 6.85631 10.7543 6.79298C10.6684 6.72965 10.6022 6.64323 10.5635 6.54377L9.08875 2.83053C9.04859 2.72501 8.97731 2.63418 8.88435 2.57009C8.79139 2.506 8.68114 2.47168 8.56823 2.47168C8.45532 2.47168 8.34508 2.506 8.25212 2.57009C8.15916 2.63418 8.08787 2.72501 8.04771 2.83053L6.57292 6.54377C6.53431 6.64333 6.46821 6.72986 6.38231 6.79329C6.29641 6.85672 6.19425 6.89443 6.08774 6.90203L2.13406 7.15907C1.62319 7.19174 1.41755 7.85202 1.81543 8.18297L4.84321 10.7031C4.92746 10.7742 4.98993 10.8677 5.02346 10.9727C5.05699 11.0778 5.06022 11.1902 5.03279 11.297L4.12884 14.8554C3.97515 15.46 4.6183 15.9479 5.1356 15.6196L8.2737 13.6323C8.3619 13.5763 8.46425 13.5465 8.56877 13.5465C8.67328 13.5465 8.77563 13.5763 8.86383 13.6323H8.8633Z" fill="#FF8A00"/>
<path d="M26 13.6323L29.3764 15.7712C29.808 16.0443 30.3435 15.6378 30.2156 15.1339L29.2404 11.297C29.2128 11.1901 29.216 11.0776 29.2496 10.9725C29.2831 10.8673 29.3456 10.7737 29.43 10.7025L32.4577 8.18297C32.8551 7.85202 32.6505 7.19174 32.1391 7.15854L28.1854 6.90149C28.079 6.89394 27.9769 6.85631 27.891 6.79298C27.8051 6.72965 27.739 6.64323 27.7003 6.54377L26.2255 2.83053C26.1853 2.72501 26.114 2.63418 26.0211 2.57009C25.9281 2.506 25.8179 2.47168 25.705 2.47168C25.592 2.47168 25.4818 2.506 25.3888 2.57009C25.2959 2.63418 25.2246 2.72501 25.1844 2.83053L23.7096 6.54377C23.671 6.64333 23.6049 6.72986 23.519 6.79329C23.4331 6.85672 23.331 6.89443 23.2245 6.90203L19.2708 7.15907C18.7599 7.19174 18.5543 7.85202 18.9522 8.18297L21.9799 10.7031C22.0642 10.7742 22.1266 10.8677 22.1602 10.9727C22.1937 11.0778 22.1969 11.1902 22.1695 11.297L21.2656 14.8554C21.1119 15.46 21.755 15.9479 22.2723 15.6196L25.4104 13.6323C25.4986 13.5763 25.601 13.5465 25.7055 13.5465C25.81 13.5465 25.9124 13.5763 26.0006 13.6323H26Z" fill="#FF8A00"/>
<path d="M43.1367 13.6323L46.5131 15.7712C46.9448 16.0443 47.4803 15.6378 47.3523 15.1339L46.3771 11.297C46.3496 11.1901 46.3527 11.0776 46.3863 10.9725C46.4198 10.8673 46.4823 10.7737 46.5667 10.7025L49.5945 8.18297C49.9918 7.85202 49.7872 7.19174 49.2758 7.15854L45.3222 6.90149C45.2157 6.89394 45.1136 6.85631 45.0277 6.79298C44.9418 6.72965 44.8757 6.64323 44.837 6.54377L43.3622 2.83053C43.322 2.72501 43.2507 2.63418 43.1578 2.57009C43.0648 2.506 42.9546 2.47168 42.8417 2.47168C42.7288 2.47168 42.6185 2.506 42.5256 2.57009C42.4326 2.63418 42.3613 2.72501 42.3212 2.83053L40.8464 6.54377C40.8077 6.64333 40.7416 6.72986 40.6557 6.79329C40.5698 6.85672 40.4677 6.89443 40.3612 6.90203L36.4075 7.15907C35.8966 7.19174 35.691 7.85202 36.0889 8.18297L39.1167 10.7031C39.2009 10.7742 39.2634 10.8677 39.2969 10.9727C39.3304 11.0778 39.3337 11.1902 39.3062 11.297L38.4023 14.8554C38.2486 15.46 38.8917 15.9479 39.409 15.6196L42.5471 13.6323C42.6353 13.5763 42.7377 13.5465 42.8422 13.5465C42.9467 13.5465 43.0491 13.5763 43.1373 13.6323H43.1367Z" fill="#FF8A00"/>
<path d="M60.2725 13.6323L63.6489 15.7712C64.0805 16.0443 64.616 15.6378 64.488 15.1339L63.5129 11.297C63.4853 11.1901 63.4885 11.0776 63.522 10.9725C63.5556 10.8673 63.6181 10.7737 63.7024 10.7025L66.7302 8.18297C67.1276 7.85202 66.923 7.19174 66.4116 7.15854L62.4579 6.90149C62.3515 6.89394 62.2493 6.85631 62.1634 6.79298C62.0776 6.72965 62.0114 6.64323 61.9727 6.54377L60.4979 2.83053C60.4578 2.72501 60.3865 2.63418 60.2935 2.57009C60.2006 2.506 60.0903 2.47168 59.9774 2.47168C59.8645 2.47168 59.7543 2.506 59.6613 2.57009C59.5683 2.63418 59.4971 2.72501 59.4569 2.83053L57.9821 6.54377C57.9435 6.64333 57.8774 6.72986 57.7915 6.79329C57.7056 6.85672 57.6034 6.89443 57.4969 6.90203L53.5432 7.15907C53.0324 7.19174 52.8267 7.85202 53.2246 8.18297L56.2524 10.7031C56.3366 10.7742 56.3991 10.8677 56.4326 10.9727C56.4662 11.0778 56.4694 11.1902 56.442 11.297L55.538 14.8554C55.3843 15.46 56.0275 15.9479 56.5448 15.6196L59.6829 13.6323C59.7711 13.5763 59.8734 13.5465 59.9779 13.5465C60.0825 13.5465 60.1848 13.5763 60.273 13.6323H60.2725Z" fill="#FF8A00"/>
<path d="M77.4092 13.6323L80.7856 15.7712C81.2172 16.0443 81.7527 15.6378 81.6247 15.1339L80.6496 11.297C80.622 11.1901 80.6252 11.0776 80.6587 10.9725C80.6923 10.8673 80.7548 10.7737 80.8391 10.7025L83.8669 8.18297C84.2643 7.85202 84.0597 7.19174 83.5483 7.15854L79.5946 6.90149C79.4882 6.89394 79.3861 6.85631 79.3002 6.79298C79.2143 6.72965 79.1481 6.64323 79.1094 6.54377L77.6346 2.83053C77.5945 2.72501 77.5232 2.63418 77.4302 2.57009C77.3373 2.506 77.227 2.47168 77.1141 2.47168C77.0012 2.47168 76.891 2.506 76.798 2.57009C76.7051 2.63418 76.6338 2.72501 76.5936 2.83053L75.1188 6.54377C75.0802 6.64333 75.0141 6.72986 74.9282 6.79329C74.8423 6.85672 74.7402 6.89443 74.6336 6.90203L70.68 7.15907C70.1691 7.19174 69.9634 7.85202 70.3613 8.18297L73.3891 10.7031C73.4734 10.7742 73.5358 10.8677 73.5694 10.9727C73.6029 11.0778 73.6061 11.1902 73.5787 11.297L72.6747 14.8554C72.521 15.46 73.1642 15.9479 73.6815 15.6196L76.8196 13.6323C76.9078 13.5763 77.0101 13.5465 77.1147 13.5465C77.2192 13.5465 77.3215 13.5763 77.4097 13.6323H77.4092Z" fill="#CCCCCC"/>
</svg>
